<?xml version="1.0" standalone="no"?>
<svg viewBox="0 0 200 200" xmlns="http://www.w3.org/2000/svg">
  <path fill="#FF0066" d="M40.3,-70.3C51.8,-63.2,60.3,-51.5,62,-39C63.6,-26.5,58.4,-13.3,58.5,0C58.5,13.3,63.9,26.7,61.8,38.3C59.6,49.9,49.9,59.8,38.4,63.1C26.8,66.4,13.4,63.1,0.6,62C-12.2,60.9,-24.3,62,-32.9,57C-41.5,52,-46.5,40.9,-46.7,30.3C-46.9,19.8,-42.3,9.9,-40.3,1.2C-38.2,-7.5,-38.6,-15,-37.8,-24.5C-36.9,-33.9,-34.8,-45.2,-28.3,-55.2C-21.8,-65.2,-10.9,-73.7,1.8,-76.8C14.4,-79.8,28.8,-77.4,40.3,-70.3Z" transform="translate(100 100)" />
</svg>
