<svg width="1892" height="226" viewBox="0 0 1892 226" fill="none" xmlns="http://www.w3.org/2000/svg">
<path d="M86.35 74.38C57.54 74.38 38.17 91.29 30.4 109.53V0H0V222.15H27.42L30 189.26C38.93 211.18 60.55 225.09 86.31 225.09C126.31 225.09 156.49 192.32 156.49 148.86C156.53 100 121.22 74.38 86.35 74.38ZM78.91 217.56C51.91 217.56 31.02 195.09 30.4 165.32V133.59C31.01 103.96 52 81.59 79.23 81.59C106.46 81.59 124.23 107.98 124.23 148.83C124.19 190.59 106.41 217.56 78.91 217.56Z" fill="#B05138"/>
<path d="M198.88 0H168.48V222.15H198.88V0Z" fill="#B05138"/>
<path d="M287.49 74.3828C249.97 74.3828 211.17 102.903 211.17 150.623C211.17 196.623 251.63 225.093 289.11 225.093C325.29 225.093 350.39 207.573 357.97 177.023L358.21 176.023L353.06 175.093L352.85 175.983C346.52 202.543 324.85 219.043 296.22 219.043C261.74 219.043 243.51 195.593 243.51 151.223C243.51 148.583 243.51 146.223 243.73 143.963H358.64V142.963C358.64 102.593 329.38 74.3828 287.49 74.3828ZM243.89 139.063C246.4 100.303 261.89 78.9728 287.49 78.9728C314.64 78.9728 327.39 98.0728 327.59 139.063H243.89Z" fill="#B05138"/>
<path d="M474.41 168C474.11 195.36 454.52 217.61 430.75 217.61C416.29 217.61 399.06 211.35 399.06 181.54V77.3203H368.66V174.14C368.66 205.14 389.1 225.14 420.73 225.14C446.28 225.14 466.06 212.25 474.6 190.36L475.74 222.2H504.81V77.3203H474.41V168Z" fill="#B05138"/>
<path d="M811.81 184.126L807.01 182.676L806.64 183.396C795.15 205.706 772.86 218.996 747 218.996C723.26 218.996 708.52 202.136 708.52 174.996C708.472 167.913 709.169 160.844 710.6 153.906C808.6 151.786 823.32 122.906 823.32 105.906C823.32 87.0362 804.61 74.3562 776.75 74.3562C731.64 74.3562 691.35 107.456 681.43 148.956C676.58 148.718 671.756 148.11 667 147.136C670.851 136.357 672.879 125.012 673 113.566H667.82C667.684 124.605 665.675 135.54 661.88 145.906C655.414 144.174 649.214 141.57 643.45 138.166C640.238 136.238 637.206 134.026 634.39 131.556C631.609 129.074 629.083 126.321 626.85 123.336C622.357 117.482 619.536 110.517 618.69 103.186C618.319 99.6439 618.68 96.0632 619.75 92.6662C620.809 89.3647 622.774 86.4267 625.42 84.1862C628.072 81.9245 631.26 80.3818 634.68 79.7062C638.111 79.0697 641.644 79.2375 645 80.1962C651.941 82.2795 657.901 86.791 661.79 92.9062C665.777 99.0536 667.863 106.24 667.79 113.566H673C673.053 105.232 670.654 97.0663 666.1 90.0862C661.511 82.9731 654.514 77.7509 646.39 75.3762C642.259 74.2106 637.913 74.0291 633.7 74.8462C629.456 75.6972 625.503 77.6257 622.22 80.4462C618.906 83.2766 616.447 86.9751 615.12 91.1262C613.848 95.166 613.422 99.4246 613.87 103.636C614.816 111.831 617.972 119.616 623 126.156C625.438 129.394 628.195 132.379 631.23 135.066C634.272 137.716 637.545 140.088 641.01 142.156C647.025 145.666 653.482 148.357 660.21 150.156C655.242 162.463 648.335 173.895 639.75 184.016C621.66 205.306 598.99 217.516 577.55 217.516C560.17 217.516 551.35 207.956 551.35 189.086C551.35 182.446 552.72 174.266 555.52 164.086L579.14 77.3062H548.69L525.53 161.246C523.27 170.136 522.26 176.836 522.26 182.946C522.26 209.326 539.79 225.076 569.16 225.076C596.31 225.076 622.54 212.076 643.02 188.436C652.511 177.455 660.071 164.945 665.38 151.436C670.368 152.486 675.43 153.154 680.52 153.436C679.592 158.423 679.12 163.484 679.11 168.556C679.11 201.846 704.65 225.096 741.21 225.096C772.32 225.096 798.51 210.176 811.28 185.176L811.81 184.126ZM775.81 78.9962C791.92 78.9962 799.74 85.7962 799.74 99.7862C799.74 131.546 771.66 147.216 711.38 149.046C722.13 100.906 752.22 78.9962 775.81 78.9962Z" fill="#B05138"/>
<path d="M953.59 92.2497C950.31 81.2497 939.59 74.4297 925.59 74.4297C908.59 74.4297 886.72 86.2097 869.22 116.35L878.95 77.3497H849.45L809.79 222.15H840.26L859.89 150.24C867.15 128.82 876.8 111.37 888.3 99.1097C899.8 86.8497 913.44 79.6997 925.56 79.6997C937.14 79.6997 945.95 85.0897 948.56 93.7597C951.43 103.37 945.99 114.39 934.69 121.81L937.58 126.22C950.86 117.48 957.15 104.15 953.59 92.2497Z" fill="#B05138"/>
<path d="M1025 28.3125L992.06 39.0025L981.63 77.3225H958.07L954.85 82.2125H980.31L953.15 182.133C952.154 185.759 951.6 189.493 951.5 193.253C951.5 212.593 966.74 225.092 990.31 225.092C1019.31 225.092 1040.83 207.473 1049.46 176.753L1049.74 175.753L1044.93 174.753L1044.68 175.603C1036.84 202.043 1019.41 217.833 998.07 217.833C985.67 217.833 979.64 212.573 979.64 201.753C979.776 197.872 980.306 194.016 981.22 190.243L1010.78 82.1825H1061L1064.23 77.2925H1012L1025 28.3125Z" fill="#B05138"/>
<path d="M1136 101.268H1154.47L1158.36 109.608H1163.49L1147.78 77.0781H1145.3L1128.62 109.608H1131.83L1136 101.268ZM1145.53 82.2081L1153.41 99.0681H1137.1L1145.53 82.2081Z" fill="#B05138"/>
<path d="M1173 96.3191H1182.67C1184 96.7549 1185.14 97.6205 1185.92 98.7791C1187.01 100.407 1187.89 102.168 1188.53 104.019C1188.95 105.172 1189.43 106.304 1189.97 107.409C1190.36 108.203 1190.84 108.942 1191.42 109.609H1196.42V109.249C1195.67 108.686 1195.07 107.952 1194.66 107.109C1193.91 105.745 1193.26 104.332 1192.71 102.879C1192.12 101.254 1191.3 99.7192 1190.28 98.3191C1189.49 97.2515 1188.46 96.3792 1187.28 95.7691C1192.61 94.6091 1195.28 91.6624 1195.28 86.9291C1195.37 85.5351 1195.08 84.1436 1194.44 82.8987C1193.81 81.6538 1192.86 80.6009 1191.68 79.8491C1189.28 78.3091 1185.88 77.5391 1181.49 77.5391H1168.24V109.609H1173V96.3191ZM1173 79.7391H1181.57C1187.57 79.7391 1190.57 82.1357 1190.57 86.9291C1190.57 91.7224 1187.57 94.1357 1181.57 94.1691H1173V79.7391Z" fill="#B05138"/>
<path d="M1217.35 110.068C1221.72 110.068 1225.3 109.138 1228.07 107.278C1229.42 106.418 1230.56 105.276 1231.42 103.931C1232.29 102.587 1232.85 101.071 1233.07 99.4881H1228.94C1228.54 101.955 1227.19 104.17 1225.19 105.668C1222.98 107.205 1220.32 107.977 1217.63 107.868C1213.63 107.868 1210.56 106.625 1208.42 104.138C1206.28 101.651 1205.21 98.0848 1205.21 93.4381C1205.21 88.8915 1206.27 85.3915 1208.39 82.9381C1210.51 80.4848 1213.56 79.2648 1217.54 79.2781C1220.25 79.1743 1222.91 79.9535 1225.14 81.4981C1227.16 82.9814 1228.52 85.1899 1228.94 87.6581H1233C1232.78 86.0755 1232.22 84.5597 1231.35 83.2149C1230.49 81.8701 1229.35 80.7283 1228 79.8681C1225.22 78.0081 1221.62 77.0781 1217.19 77.0781C1211.75 77.0781 1207.57 78.4981 1204.65 81.3381C1201.73 84.1781 1200.27 88.2115 1200.28 93.4381C1200.28 98.7715 1201.75 102.878 1204.68 105.758C1207.61 108.638 1211.84 110.075 1217.35 110.068Z" fill="#B05138"/>
<path d="M1243.88 93.4791H1264.45V109.609H1269.22V77.5391H1264.45V91.3291H1243.88V77.5391H1239.11V109.609H1243.88V93.4791Z" fill="#B05138"/>
<path d="M1283.56 77.5391H1278.79V109.609H1283.56V77.5391Z" fill="#B05138"/>
<path d="M1303.72 109.609H1308.48V79.7391H1322V77.5391H1290.16V79.7391H1303.72V109.609Z" fill="#B05138"/>
<path d="M1353.89 107.409H1331.49V93.4791H1351.28V91.3291H1331.49V79.7391H1353.89V77.5391H1326.72V109.609H1353.89V107.409Z" fill="#B05138"/>
<path d="M1375.75 79.2781C1378.46 79.1758 1381.13 79.9547 1383.36 81.4981C1385.37 82.9843 1386.74 85.1914 1387.16 87.6581H1391.28C1391.06 86.0755 1390.5 84.5597 1389.63 83.2149C1388.77 81.8701 1387.63 80.7283 1386.28 79.8681C1383.5 78.0081 1379.9 77.0781 1375.47 77.0781C1370.03 77.0781 1365.85 78.4981 1362.94 81.3381C1360.03 84.1781 1358.57 88.2115 1358.56 93.4381C1358.56 98.7715 1360.03 102.878 1362.96 105.758C1365.89 108.638 1370.09 110.075 1375.56 110.068C1379.93 110.068 1383.51 109.138 1386.28 107.278C1387.63 106.418 1388.77 105.276 1389.63 103.931C1390.5 102.587 1391.06 101.071 1391.28 99.4881H1387.16C1386.76 101.958 1385.41 104.174 1383.4 105.668C1381.19 107.206 1378.53 107.979 1375.84 107.868C1371.84 107.868 1368.77 106.625 1366.63 104.138C1364.49 101.651 1363.42 98.0848 1363.42 93.4381C1363.42 88.8915 1364.48 85.3915 1366.61 82.9381C1368.74 80.4848 1371.78 79.2648 1375.75 79.2781Z" fill="#B05138"/>
<path d="M1407.96 109.609H1412.73V79.7391H1426.24V77.5391H1394.4V79.7391H1407.96V109.609Z" fill="#B05138"/>
<path d="M1457.54 106.519C1459.89 104.152 1461.07 100.739 1461.07 96.2791V77.5391H1456.3V97.3291C1456.3 100.809 1455.48 103.436 1453.85 105.209C1452.22 106.989 1449.61 107.869 1446.04 107.869C1442.47 107.869 1439.78 106.969 1438.16 105.169C1436.54 103.369 1435.73 100.749 1435.73 97.3291V77.5391H1431V96.2791C1431 100.739 1432.18 104.152 1434.55 106.519C1436.92 108.886 1440.76 110.069 1446.08 110.069C1451.36 110.069 1455.18 108.886 1457.54 106.519Z" fill="#B05138"/>
<path d="M1473.53 96.3191H1483.2C1484.53 96.7549 1485.67 97.6205 1486.45 98.7791C1487.54 100.407 1488.42 102.168 1489.06 104.019C1489.48 105.174 1489.97 106.306 1490.51 107.409C1490.89 108.204 1491.37 108.944 1491.95 109.609H1496.95V109.249C1496.2 108.683 1495.6 107.95 1495.19 107.109C1494.43 105.747 1493.76 104.333 1493.19 102.879C1492.59 101.254 1491.78 99.7192 1490.76 98.3191C1489.97 97.2515 1488.94 96.3792 1487.76 95.7691C1493.09 94.6091 1495.76 91.6624 1495.76 86.9291C1495.85 85.5351 1495.56 84.1436 1494.92 82.8987C1494.29 81.6538 1493.34 80.6009 1492.16 79.8491C1489.76 78.3091 1486.36 77.5391 1481.97 77.5391H1468.72V109.609H1473.49L1473.53 96.3191ZM1473.53 79.7391H1482.1C1488.1 79.7391 1491.1 82.1357 1491.1 86.9291C1491.1 91.7224 1488.1 94.1357 1482.1 94.1691H1473.53V79.7391Z" fill="#B05138"/>
<path d="M1528.97 107.409H1506.57V93.4791H1526.36V91.3291H1506.57V79.7391H1528.97V77.5391H1501.8V109.609H1528.97V107.409Z" fill="#B05138"/>
<path d="M1573.81 105.279C1576.94 102.399 1578.51 98.3124 1578.5 93.0191C1578.5 87.9524 1576.94 84.1057 1573.83 81.4791C1570.72 78.8524 1566.17 77.5391 1560.18 77.5391H1547.71V109.609H1560.45C1566.22 109.609 1570.68 108.166 1573.81 105.279ZM1552.48 79.7391H1561.09C1565.25 79.7391 1568.4 80.8624 1570.53 83.1091C1572.66 85.3557 1573.73 88.6591 1573.74 93.0191C1573.74 97.6857 1572.65 101.246 1570.46 103.699C1568.27 106.152 1565.15 107.389 1561.09 107.409H1552.48V79.7391Z" fill="#B05138"/>
<path d="M1586.25 81.7515C1586.6 81.7509 1586.95 81.6578 1587.25 81.4815C1587.28 82.6284 1587.03 83.7653 1586.54 84.8015C1586.08 85.8075 1585.4 86.6939 1584.54 87.3915L1585.23 87.9415C1586.42 87.1935 1587.39 86.1314 1588.02 84.8715C1588.73 83.5776 1589.11 82.1276 1589.12 80.6515C1589.18 79.7179 1588.92 78.7918 1588.39 78.0215C1588.16 77.7167 1587.85 77.4723 1587.5 77.3088C1587.16 77.1453 1586.77 77.0673 1586.39 77.0815C1586.06 77.0641 1585.73 77.1136 1585.42 77.227C1585.11 77.3404 1584.82 77.5154 1584.58 77.7415C1584.36 77.969 1584.19 78.2386 1584.07 78.5342C1583.96 78.8297 1583.91 79.1452 1583.92 79.4615C1583.91 79.766 1583.96 80.0702 1584.07 80.3545C1584.18 80.6388 1584.34 80.8969 1584.56 81.1125C1584.77 81.3281 1585.03 81.4962 1585.32 81.6063C1585.6 81.7163 1585.91 81.7658 1586.21 81.7515H1586.25Z" fill="#B05138"/>
<path d="M1602.11 77.5391H1597.34V109.609H1602.11V77.5391Z" fill="#B05138"/>
<path d="M1636.01 102.419L1616.49 77.5391H1611.68V109.609H1615.71V81.7091L1637.66 109.609H1640.04V77.5391H1636.01V102.419Z" fill="#B05138"/>
<path d="M1644.76 79.7391H1658.32V109.609H1663.09V79.7391H1676.61V77.5391H1644.76V79.7391Z" fill="#B05138"/>
<path d="M1681.32 109.609H1708.5V107.409H1686.09V93.4791H1705.88V91.3291H1686.09V79.7391H1708.5V77.5391H1681.32V109.609Z" fill="#B05138"/>
<path d="M1703.18 69.4301C1704.34 68.6301 1704.92 67.9201 1704.92 67.2701C1704.92 67.11 1704.89 66.9515 1704.82 66.8062C1704.75 66.6609 1704.65 66.5325 1704.53 66.4301C1704.23 66.1852 1703.85 66.0605 1703.46 66.0801C1702.99 66.0869 1702.53 66.1971 1702.11 66.4028C1701.69 66.6086 1701.32 66.9048 1701.03 67.2701L1694.57 74.3301H1696.17L1703.18 69.4301Z" fill="#B05138"/>
<path d="M1740.5 107.109C1739.74 105.743 1739.08 104.33 1738.5 102.879C1737.9 101.256 1737.09 99.7222 1736.08 98.3191C1735.28 97.2543 1734.26 96.3827 1733.08 95.7691C1738.41 94.6091 1741.08 91.6624 1741.08 86.9291C1741.17 85.5351 1740.88 84.1436 1740.24 82.8987C1739.61 81.6538 1738.66 80.6009 1737.48 79.8491C1735.09 78.3091 1731.7 77.5391 1727.29 77.5391H1714.05V109.609H1718.81V96.3191H1728.48C1729.81 96.7521 1730.95 97.6184 1731.73 98.7791C1732.82 100.407 1733.7 102.168 1734.34 104.019C1734.77 105.173 1735.25 106.304 1735.79 107.409C1736.17 108.204 1736.65 108.944 1737.23 109.609H1742.23V109.249C1741.5 108.679 1740.9 107.947 1740.5 107.109ZM1727.42 94.1691H1718.85V79.7391H1727.42C1733.42 79.7391 1736.42 82.1357 1736.42 86.9291C1736.42 91.7224 1733.42 94.1357 1727.42 94.1691Z" fill="#B05138"/>
<path d="M1753.77 77.5391H1749V109.609H1753.77V77.5391Z" fill="#B05138"/>
<path d="M1763.34 109.609H1790.52V107.409H1768.11V93.4791H1787.9V91.3291H1768.11V79.7391H1790.52V77.5391H1763.34V109.609Z" fill="#B05138"/>
<path d="M1821.44 97.3291C1821.44 100.809 1820.63 103.439 1818.99 105.209C1817.35 106.979 1814.75 107.869 1811.18 107.869C1807.61 107.869 1804.92 106.969 1803.3 105.169C1801.68 103.369 1800.87 100.749 1800.87 97.3291V77.5391H1796.1V96.2791C1796.1 100.739 1797.29 104.152 1799.66 106.519C1802.03 108.886 1805.87 110.069 1811.18 110.069C1816.51 110.069 1820.35 108.886 1822.68 106.519C1825.01 104.152 1826.19 100.739 1826.21 96.2791V77.5391H1821.44V97.3291Z" fill="#B05138"/>
<path d="M1860.32 107.109C1859.57 105.743 1858.9 104.33 1858.32 102.879C1857.72 101.256 1856.91 99.7222 1855.9 98.3191C1855.1 97.2543 1854.08 96.3827 1852.9 95.7691C1858.23 94.6091 1860.9 91.6624 1860.9 86.9291C1860.99 85.5351 1860.7 84.1436 1860.06 82.8987C1859.43 81.6538 1858.48 80.6009 1857.3 79.8491C1854.91 78.3091 1851.52 77.5391 1847.11 77.5391H1833.87V109.609H1838.63V96.3191H1848.3C1849.63 96.7521 1850.77 97.6184 1851.55 98.7791C1852.64 100.407 1853.52 102.168 1854.16 104.019C1854.59 105.173 1855.07 106.304 1855.61 107.409C1855.99 108.204 1856.47 108.944 1857.05 109.609H1862.05V109.249C1861.32 108.679 1860.72 107.947 1860.32 107.109ZM1847.24 94.1691H1838.67V79.7391H1847.24C1853.24 79.7391 1856.24 82.1357 1856.24 86.9291C1856.24 91.7224 1853.24 94.1357 1847.24 94.1691Z" fill="#B05138"/>
<path d="M1889.53 76.5781L1876.47 110.618H1878.86L1891.91 76.5781H1889.53Z" fill="#B05138"/>
<path d="M1144.08 133.812H1131.62V165.883H1144.36C1150.13 165.883 1154.58 164.439 1157.71 161.553C1160.84 158.666 1162.4 154.579 1162.41 149.292C1162.41 144.226 1160.85 140.379 1157.74 137.753C1154.63 135.126 1150.07 133.812 1144.08 133.812ZM1154.37 160.003C1152.18 162.476 1149.06 163.713 1145 163.713H1136.38V136.003H1145C1149.15 136.003 1152.3 137.123 1154.44 139.363C1156.58 141.603 1157.65 144.909 1157.64 149.283C1157.64 153.936 1156.55 157.509 1154.37 160.003Z" fill="#B05138"/>
<path d="M1196.45 163.682H1174.05V149.753H1193.84V147.603H1174.05V136.012H1196.45V133.812H1169.28V165.883H1196.45V163.682Z" fill="#B05138"/>
<path d="M1189 123.544L1182.53 130.604H1184.14L1191.14 125.704C1192.3 124.904 1192.88 124.184 1192.88 123.544C1192.88 123.382 1192.85 123.222 1192.78 123.075C1192.71 122.928 1192.61 122.798 1192.49 122.694C1192.18 122.454 1191.8 122.333 1191.41 122.354C1190.95 122.363 1190.49 122.475 1190.07 122.681C1189.66 122.886 1189.29 123.181 1189 123.544Z" fill="#B05138"/>
<path d="M1218.31 135.552C1221.02 135.448 1223.69 136.227 1225.92 137.772C1227.93 139.258 1229.3 141.465 1229.72 143.932H1233.84C1233.63 142.353 1233.08 140.839 1232.23 139.494C1231.37 138.149 1230.24 137.005 1228.9 136.142C1226.12 134.282 1222.51 133.352 1218.08 133.352C1212.64 133.352 1208.46 134.772 1205.55 137.612C1202.64 140.452 1201.18 144.485 1201.17 149.712C1201.17 155.045 1202.64 159.152 1205.57 162.032C1208.51 164.902 1212.7 166.342 1218.17 166.342C1222.54 166.342 1226.11 165.408 1228.9 163.542C1230.24 162.679 1231.37 161.537 1232.22 160.194C1233.08 158.851 1233.63 157.338 1233.84 155.762H1229.72C1229.31 158.23 1227.96 160.445 1225.96 161.942C1223.75 163.481 1221.09 164.253 1218.4 164.142C1214.4 164.142 1211.33 162.898 1209.19 160.412C1207.06 157.922 1205.98 154.352 1205.98 149.712C1205.98 145.072 1207.05 141.662 1209.17 139.212C1211.29 136.762 1214.34 135.552 1218.31 135.552Z" fill="#B05138"/>
<path d="M1247.09 164.371C1250.02 165.67 1253.18 166.341 1256.38 166.341C1259.58 166.341 1262.75 165.67 1265.67 164.371C1268.19 163.121 1270.26 161.128 1271.6 158.661C1273.04 155.902 1273.75 152.821 1273.66 149.711C1273.74 146.643 1273.03 143.605 1271.6 140.891C1270.25 138.452 1268.18 136.49 1265.67 135.271C1262.74 134.005 1259.58 133.352 1256.38 133.352C1253.19 133.352 1250.02 134.005 1247.09 135.271C1244.56 136.476 1242.46 138.44 1241.09 140.891C1239.66 143.605 1238.95 146.643 1239.03 149.711C1238.94 152.821 1239.65 155.902 1241.09 158.661C1242.45 161.14 1244.55 163.135 1247.09 164.371ZM1247.09 139.211C1249.26 136.771 1252.34 135.551 1256.35 135.551C1260.36 135.551 1263.43 136.781 1265.58 139.241C1267.73 141.701 1268.81 145.191 1268.81 149.711C1268.81 154.231 1267.73 157.788 1265.56 160.381C1263.39 162.888 1260.32 164.141 1256.35 164.141C1252.38 164.141 1249.29 162.888 1247.09 160.381C1244.92 157.881 1243.83 154.324 1243.84 149.711C1243.85 145.098 1244.94 141.598 1247.13 139.211H1247.09Z" fill="#B05138"/>
<path d="M1306.9 163.383C1306.16 162.016 1305.51 160.603 1304.96 159.152C1304.36 157.531 1303.54 155.997 1302.53 154.592C1301.74 153.525 1300.71 152.653 1299.53 152.042C1304.86 150.882 1307.53 147.936 1307.53 143.202C1307.62 141.81 1307.33 140.419 1306.7 139.175C1306.07 137.93 1305.11 136.876 1303.94 136.122C1301.54 134.582 1298.14 133.812 1293.74 133.812H1280.5V165.883H1285.26V152.592H1294.93C1296.26 153.025 1297.4 153.887 1298.19 155.042C1299.27 156.679 1300.15 158.442 1300.8 160.292C1301.22 161.446 1301.7 162.577 1302.24 163.682C1302.62 164.478 1303.1 165.218 1303.68 165.883H1308.68V165.512C1307.92 164.955 1307.31 164.225 1306.9 163.383ZM1293.82 150.443H1285.25V136.003H1293.82C1299.82 136.003 1302.82 138.399 1302.82 143.193C1302.82 147.986 1299.82 150.403 1293.82 150.443Z" fill="#B05138"/>
<path d="M1327.22 133.352L1310.55 165.882H1313.75L1317.92 157.542H1336.39L1340.28 165.882H1345.42L1329.7 133.352H1327.22ZM1319.02 155.352L1327.45 138.492L1335.34 155.352H1319.02Z" fill="#B05138"/>
<path d="M1342.58 136.012H1356.14V165.883H1360.9V136.012H1374.42V133.812H1342.58V136.012Z" fill="#B05138"/>
<path d="M1385.78 133.812H1381.02V165.883H1385.78V133.812Z" fill="#B05138"/>
<path d="M1427 140.891C1425.65 138.452 1423.58 136.49 1421.07 135.271C1418.14 134.005 1414.98 133.352 1411.78 133.352C1408.58 133.352 1405.42 134.005 1402.49 135.271C1399.96 136.479 1397.86 138.442 1396.49 140.891C1395.06 143.605 1394.35 146.643 1394.43 149.711C1394.34 152.821 1395.05 155.902 1396.49 158.661C1397.85 161.138 1399.95 163.132 1402.49 164.371C1405.41 165.67 1408.58 166.341 1411.78 166.341C1414.98 166.341 1418.14 165.67 1421.07 164.371C1423.59 163.121 1425.66 161.128 1427 158.661C1428.44 155.904 1429.15 152.822 1429.06 149.711C1429.15 146.642 1428.44 143.604 1427 140.891ZM1421 160.381C1418.83 162.888 1415.76 164.141 1411.79 164.141C1407.82 164.141 1404.74 162.888 1402.54 160.381C1400.37 157.881 1399.29 154.324 1399.28 149.711C1399.27 145.098 1400.36 141.598 1402.54 139.211C1404.7 136.771 1407.78 135.551 1411.79 135.551C1415.8 135.551 1418.87 136.781 1421.02 139.241C1423.18 141.701 1424.26 145.191 1424.25 149.711C1424.24 154.231 1423.16 157.788 1421 160.381Z" fill="#B05138"/>
<path d="M1439.94 137.982L1461.89 165.883H1464.28V133.812H1460.24V158.693L1440.72 133.812H1435.91V165.883H1439.94V137.982Z" fill="#B05138"/>
<path d="M1483.89 166.894L1496.94 132.844H1494.56L1481.5 166.894H1483.89Z" fill="#B05138"/>
<path d="M1149.81 216.468L1137.03 190.078H1131.57V222.148H1134.41V194.838L1147.79 222.148H1150.04L1162.5 195.208V222.148H1167.27V190.078H1162.04L1149.81 216.468Z" fill="#B05138"/>
<path d="M1188.71 189.617L1172 222.147H1175.21L1179.38 213.807H1197.85L1201.74 222.147H1206.87L1191.15 189.617H1188.71ZM1180.51 211.617L1188.94 194.757L1196.82 211.617H1180.51Z" fill="#B05138"/>
<path d="M1214.28 179.859L1208.6 186.869H1210.84L1215.88 182.009L1220.92 186.869H1223.17L1217.49 179.859H1214.28Z" fill="#B05138"/>
<path d="M1218.26 190.078H1213.5V222.148H1218.26V190.078Z" fill="#B05138"/>
<path d="M1224.86 192.278H1238.43V222.148H1243.19V192.278H1256.71V190.078H1224.86V192.278Z" fill="#B05138"/>
<path d="M1287.84 219.648C1287.1 218.278 1286.45 216.862 1285.89 215.408C1285.29 213.789 1284.48 212.259 1283.47 210.858C1282.68 209.791 1281.65 208.919 1280.47 208.308C1285.8 207.148 1288.47 204.201 1288.47 199.468C1288.56 198.074 1288.27 196.683 1287.63 195.438C1287 194.193 1286.05 193.14 1284.87 192.388C1282.48 190.848 1279.09 190.078 1274.68 190.078H1261.44V222.148H1266.2V208.858H1275.87C1277.2 209.291 1278.34 210.153 1279.12 211.308C1280.21 212.942 1281.09 214.706 1281.74 216.558C1282.16 217.713 1282.64 218.845 1283.18 219.948C1283.56 220.743 1284.04 221.483 1284.62 222.148H1289.62V221.778C1288.86 221.221 1288.25 220.49 1287.84 219.648ZM1274.76 206.708H1266.19V192.278H1274.76C1280.76 192.278 1283.76 194.675 1283.76 199.468C1283.76 204.261 1280.76 206.675 1274.76 206.708Z" fill="#B05138"/>
<path d="M1301.1 190.078H1296.34V222.148H1301.1V190.078Z" fill="#B05138"/>
<path d="M1333.62 205.561C1331.04 204.608 1328.38 203.873 1325.67 203.361C1323.56 202.974 1321.48 202.408 1319.46 201.671C1318.32 201.278 1317.29 200.616 1316.46 199.741C1315.87 199.02 1315.56 198.112 1315.59 197.181C1315.58 196.381 1315.78 195.592 1316.18 194.898C1316.58 194.204 1317.16 193.632 1317.86 193.241C1319.89 192.171 1322.18 191.679 1324.48 191.821C1326.91 191.698 1329.32 192.219 1331.48 193.331C1332.34 193.857 1333.07 194.565 1333.63 195.404C1334.19 196.244 1334.56 197.195 1334.71 198.191H1338.79C1338.63 196.898 1338.18 195.657 1337.47 194.565C1336.76 193.473 1335.81 192.558 1334.69 191.891C1332.32 190.371 1329.01 189.615 1324.77 189.621C1321.28 189.47 1317.8 190.185 1314.65 191.701C1313.47 192.251 1312.48 193.131 1311.8 194.233C1311.12 195.336 1310.77 196.614 1310.8 197.911C1310.78 199.086 1311.08 200.245 1311.67 201.26C1312.26 202.274 1313.12 203.105 1314.16 203.661C1317.28 205.324 1320.66 206.446 1324.16 206.981C1326.37 207.374 1328.54 207.973 1330.64 208.771C1331.9 209.221 1333.03 209.977 1333.92 210.971C1334.59 211.851 1334.95 212.934 1334.92 214.041C1334.96 214.979 1334.75 215.91 1334.31 216.739C1333.87 217.568 1333.22 218.266 1332.42 218.761C1330.76 219.861 1328.35 220.411 1325.2 220.411C1321.66 220.411 1318.99 219.745 1317.2 218.411C1316.27 217.666 1315.52 216.721 1315 215.646C1314.48 214.572 1314.21 213.395 1314.2 212.201H1310C1310.08 213.74 1310.52 215.239 1311.28 216.576C1312.05 217.914 1313.11 219.053 1314.4 219.901C1317.07 221.701 1320.7 222.601 1325.31 222.601C1329.73 222.601 1333.23 221.798 1335.82 220.191C1336.77 219.621 1337.59 218.859 1338.23 217.955C1338.87 217.051 1339.31 216.024 1339.53 214.94C1339.76 213.855 1339.75 212.736 1339.52 211.654C1339.28 210.571 1338.83 209.549 1338.18 208.651C1336.96 207.239 1335.38 206.174 1333.62 205.561Z" fill="#B05138"/>
<path d="M1346.61 222.148H1373.78V219.948H1351.37V206.018H1371.17V203.868H1351.37V192.278H1373.78V190.078H1346.61V222.148Z" fill="#B05138"/>
<path d="M1418.64 194.003C1415.52 191.369 1410.97 190.056 1404.98 190.063H1392.52V222.133H1405.26C1411.03 222.133 1415.48 220.689 1418.61 217.803C1421.74 214.916 1423.31 210.829 1423.31 205.543C1423.31 200.516 1421.75 196.669 1418.64 194.003ZM1415.27 216.223C1413.09 218.689 1409.97 219.926 1405.9 219.933H1397.28V192.283H1405.9C1410.05 192.283 1413.19 193.403 1415.34 195.643C1417.49 197.883 1418.56 201.189 1418.55 205.563C1418.55 210.216 1417.46 213.776 1415.27 216.243V216.223Z" fill="#B05138"/>
<path d="M1431.24 189.621C1430.91 189.602 1430.58 189.651 1430.27 189.765C1429.96 189.878 1429.67 190.054 1429.43 190.281C1429.21 190.507 1429.03 190.776 1428.92 191.072C1428.8 191.367 1428.75 191.684 1428.76 192.001C1428.75 192.305 1428.8 192.608 1428.91 192.891C1429.02 193.174 1429.19 193.433 1429.4 193.651C1429.62 193.865 1429.88 194.032 1430.16 194.142C1430.44 194.252 1430.75 194.303 1431.05 194.291C1431.4 194.294 1431.75 194.2 1432.05 194.021C1432.08 195.168 1431.84 196.306 1431.34 197.341C1430.9 198.345 1430.23 199.232 1429.39 199.931L1430.08 200.481C1431.28 199.734 1432.25 198.672 1432.88 197.411C1433.59 196.117 1433.97 194.667 1433.98 193.191C1434.04 192.256 1433.78 191.329 1433.24 190.561C1433.01 190.256 1432.7 190.011 1432.36 189.847C1432.01 189.684 1431.62 189.606 1431.24 189.621Z" fill="#B05138"/>
<path d="M1465.51 193.738C1464.23 192.404 1462.67 191.364 1460.95 190.688C1458.64 189.848 1456.18 189.496 1453.73 189.654C1451.28 189.812 1448.88 190.478 1446.7 191.608C1444.37 192.929 1442.48 194.918 1441.29 197.318C1439.97 200.025 1439.32 203.008 1439.39 206.018C1439.32 209.059 1439.97 212.074 1441.29 214.818C1442.48 217.236 1444.36 219.246 1446.7 220.588C1448.88 221.736 1451.27 222.412 1453.73 222.571C1456.18 222.73 1458.64 222.367 1460.95 221.508C1462.68 220.817 1464.24 219.752 1465.51 218.388V222.148H1485.9V219.998H1470.28V205.998H1483.28V203.998H1470.28V192.278H1485.9V190.078H1465.51V193.738ZM1464.18 213.738C1463.43 215.734 1462.12 217.471 1460.4 218.738C1458.72 219.932 1456.71 220.552 1454.65 220.508C1452.64 220.558 1450.67 219.946 1449.04 218.768C1447.38 217.486 1446.12 215.749 1445.42 213.768C1444.53 211.276 1444.1 208.643 1444.16 205.998C1444.1 203.385 1444.53 200.784 1445.42 198.328C1446.12 196.345 1447.37 194.607 1449.04 193.328C1450.67 192.146 1452.64 191.531 1454.65 191.578C1456.7 191.535 1458.72 192.148 1460.4 193.328C1462.12 194.592 1463.43 196.33 1464.18 198.328C1465.12 200.767 1465.57 203.365 1465.51 205.978C1465.58 208.626 1465.12 211.262 1464.18 213.738Z" fill="#B05138"/>
<path d="M1516.83 209.868C1516.83 213.348 1516.01 215.975 1514.38 217.748C1512.75 219.521 1510.14 220.408 1506.57 220.408C1502.93 220.408 1500.3 219.508 1498.68 217.708C1497.06 215.908 1496.25 213.295 1496.26 209.868V190.078H1491.49V208.818C1491.49 213.278 1492.67 216.691 1495.04 219.058C1497.41 221.425 1501.25 222.608 1506.57 222.608C1511.9 222.608 1515.74 221.425 1518.07 219.058C1520.4 216.691 1521.58 213.278 1521.6 208.818V190.078H1516.83V209.868Z" fill="#B05138"/>
<path d="M1544.14 217.158L1531.35 190.078H1526.09L1541.98 222.608H1544.46L1561 190.078H1557.88L1544.14 217.158Z" fill="#B05138"/>
<path d="M1591.91 219.648C1591.15 218.283 1590.48 216.866 1589.91 215.408C1589.31 213.787 1588.5 212.256 1587.48 210.858C1586.69 209.79 1585.66 208.918 1584.48 208.308C1589.81 207.148 1592.48 204.201 1592.48 199.468C1592.57 198.075 1592.28 196.684 1591.65 195.439C1591.02 194.194 1590.07 193.14 1588.89 192.388C1586.49 190.848 1583.09 190.078 1578.69 190.078H1565.45V222.148H1570.22V208.858H1579.88C1581.21 209.291 1582.36 210.153 1583.14 211.308C1584.22 212.945 1585.1 214.708 1585.75 216.558C1586.17 217.711 1586.65 218.843 1587.19 219.948C1587.58 220.742 1588.06 221.481 1588.64 222.148H1593.64V221.778C1592.9 221.218 1592.31 220.487 1591.91 219.648ZM1578.83 206.708H1570.26V192.278H1578.83C1584.83 192.278 1587.83 194.675 1587.83 199.468C1587.83 204.261 1584.83 206.675 1578.83 206.708Z" fill="#B05138"/>
<path d="M1598.53 222.148H1625.7V219.948H1603.29V206.018H1623.09V203.868H1603.29V192.278H1625.7V190.078H1598.53V222.148Z" fill="#B05138"/>
<path d="M1640.82 223.159H1643.2L1656.26 189.109H1653.88L1640.82 223.159Z" fill="#B05138"/>
</svg>
