<svg xmlns="http://www.w3.org/2000/svg" viewBox="0 0 807.95 170.88"><defs><style>.cls-1{fill:#b05138;}</style></defs><g id="Calque_2" data-name="Calque 2"><g id="Calque_1-2" data-name="Calque 1"><path class="cls-1" d="M65.56,56.47C43.68,56.47,29,69.3,23.08,83.15V0H0V168.65H20.82l2-25c6.78,16.64,23.19,27.2,42.75,27.2,30.37,0,53.27-24.88,53.27-57.87C118.83,75.89,92,56.47,65.56,56.47Zm-5.65,108.7c-20.53,0-36.36-17.06-36.83-39.66V101.42C23.54,78.92,39.48,62,60.15,62S94.28,82,94.28,113C94.28,144.69,80.79,165.17,59.91,165.17Z"/><rect class="cls-1" x="127.91" width="23.08" height="168.65"/><path class="cls-1" d="M218.26,56.47c-28.49,0-57.95,21.65-57.95,57.88,0,34.92,30.72,56.53,59.18,56.53,27.46,0,46.52-13.3,52.27-36.49l.19-.76-3.91-.71-.17.67c-4.8,20.17-21.27,32.7-43,32.7-26.18,0-40-17.81-40-51.5,0-2,0-3.76.17-5.51h87.23v-.74C272.27,77.88,250.06,56.47,218.26,56.47Zm-33.1,49.1C187.06,76.15,198.8,60,218.26,60c20.61,0,30.29,14.51,30.44,45.62Z"/><path class="cls-1" d="M360.16,127.51c-.22,20.76-15.09,37.66-33.14,37.66-11,0-24.06-4.75-24.06-27.39V58.7H279.88v73.5c0,23.5,15.51,38.68,39.53,38.68,19.4,0,34.41-9.78,40.9-26.4l.86,24.17h22.07V58.7H360.16Z"/><path class="cls-1" d="M616.31,139.79l-3.64-1.1-.28.54c-8.73,16.94-25.65,27.06-45.26,27.06-18,0-29.22-12.81-29.22-33.42a76.86,76.86,0,0,1,1.58-16c74.44-1.61,85.58-23.51,85.58-36.44,0-14.32-14.2-24-35.35-24-34.25,0-64.84,25.13-72.37,56.63a72.39,72.39,0,0,1-11-1.39,78.29,78.29,0,0,0,4.56-25.49H507a73.86,73.86,0,0,1-4.52,24.55,55.73,55.73,0,0,1-14-5.88,47.14,47.14,0,0,1-6.88-5,42.16,42.16,0,0,1-5.72-6.23,31,31,0,0,1-6.2-15.3,19.84,19.84,0,0,1,.81-8,14,14,0,0,1,4.31-6.43,15.32,15.32,0,0,1,7-3.4,17,17,0,0,1,7.89.37,22.88,22.88,0,0,1,12.75,9.65A28.26,28.26,0,0,1,507,86.22h3.94a32.26,32.26,0,0,0-5.23-17.82,26.81,26.81,0,0,0-15-11.18,21,21,0,0,0-9.63-.4,19.23,19.23,0,0,0-8.72,4.26,17.76,17.76,0,0,0-5.39,8.1,23.48,23.48,0,0,0-1,9.5,34.59,34.59,0,0,0,7,17.1,45.56,45.56,0,0,0,6.25,6.76,51.45,51.45,0,0,0,7.43,5.38A58.87,58.87,0,0,0,501.23,114a94.15,94.15,0,0,1-15.53,25.7c-13.74,16.17-30.95,25.44-47.22,25.44-13.2,0-19.89-7.26-19.89-21.58,0-5.05,1-11.26,3.17-19L439.69,58.7H416.55L399,122.42a66.82,66.82,0,0,0-2.48,16.48c0,20,13.31,32,35.6,32,20.61,0,40.53-9.88,56.08-27.81a97.24,97.24,0,0,0,17-28.1,74.52,74.52,0,0,0,11.5,1.51A63.52,63.52,0,0,0,515.57,128c0,25.27,19.39,42.92,47.14,42.92,23.62,0,43.51-11.33,53.2-30.31ZM589,60c12.23,0,18.17,5.17,18.17,15.78,0,24.12-21.32,36-67.09,37.41C548.23,76.61,571.07,60,589,60Z"/><path class="cls-1" d="M724,70c-2.5-8.35-10.65-13.53-21.29-13.53-12.94,0-29.5,8.94-42.79,31.82l7.39-29.63H644.88l-30.11,110h23.14l14.9-54.59c5.51-16.26,12.84-29.51,21.57-38.82s19.09-14.73,28.28-14.73c8.8,0,15.49,4.09,17.46,10.67,2.18,7.3-2,15.66-10.53,21.3l2.19,3.34C721.88,89.19,726.65,79.07,724,70Z"/><path class="cls-1" d="M767.36,62.41H805.5L808,58.7h-39.7l9.92-37.21-25,8.09L745.24,58.7H727.35l-2.45,3.71h19.33l-20.62,75.86a35.2,35.2,0,0,0-1.25,8.44c0,14.69,11.57,24.17,29.46,24.17,22,0,38.36-13.37,44.91-36.69l.21-.77-3.65-.73-.19.64c-6,20.08-19.18,32.06-35.38,32.06-9.42,0-14-4-14-12.21a43.67,43.67,0,0,1,1.2-8.73Z"/></g></g></svg>