<svg xmlns="http://www.w3.org/2000/svg" viewBox="0 0 1891.9 225.1"><defs><style>.cls-1{fill:#b05138}</style></defs><g id="Calque_2" data-name="Calque 2"><g id="Calque_1-2" data-name="Calque 1"><path class="cls-1" d="M86.3 74.4c-28.8 0-48.1 16.9-55.9 35.1V0H0v222.2h27.4l2.6-33a59 59 0 0 0 56.3 35.9c40 0 70.2-32.8 70.2-76.2 0-48.9-35.3-74.5-70.2-74.5ZM79 217.6c-27 0-47.9-22.5-48.5-52.3v-31.7c.6-29.6 21.6-52 48.8-52s45 26.4 45 67.2c0 41.8-17.8 68.8-45.3 68.8ZM168.5 0h30.4v222.2h-30.4zM287.5 74.4a75.5 75.5 0 0 0-76.3 76.2c0 46 40.4 74.5 78 74.5 36 0 61.2-17.5 68.8-48l.2-1-5.1-1-.2.9c-6.4 26.5-28 43-56.7 43-34.5 0-52.7-23.4-52.7-67.8 0-2.6 0-5 .2-7.2h115v-1c0-40.4-29.3-68.6-71.2-68.6ZM243.9 139c2.5-38.8 18-60.1 43.6-60.1 27.1 0 39.9 19 40 60ZM474.4 168c-.3 27.4-19.9 49.6-43.6 49.6-14.5 0-31.7-6.2-31.7-36V77.2h-30.4v96.8c0 31 20.4 51 52 51 25.6 0 45.4-12.9 53.9-34.7l1.1 31.8h29.1V77.3h-30.4ZM811.8 184.1l-4.8-1.4-.4.7A65.6 65.6 0 0 1 747 219c-23.7 0-38.5-16.9-38.5-44a101 101 0 0 1 2.1-21c98-2.2 112.7-31 112.7-48 0-19-18.7-31.6-46.5-31.6a100 100 0 0 0-95.4 74.6A95.2 95.2 0 0 1 667 147a103 103 0 0 0 6-33.5h-5.2a97.6 97.6 0 0 1-6 32.3 73.8 73.8 0 0 1-18.3-7.7 62.7 62.7 0 0 1-9.1-6.6 55.9 55.9 0 0 1-7.5-8.3 40.8 40.8 0 0 1-8.2-20.1 26 26 0 0 1 1-10.5 18.5 18.5 0 0 1 5.7-8.5 20.4 20.4 0 0 1 9.3-4.5 22.6 22.6 0 0 1 10.3.5 30.2 30.2 0 0 1 16.8 12.7 37.3 37.3 0 0 1 6 20.7h5.2a42.5 42.5 0 0 0-6.9-23.5 35.2 35.2 0 0 0-19.7-14.7 27.5 27.5 0 0 0-12.7-.6 25.2 25.2 0 0 0-11.5 5.6 23.4 23.4 0 0 0-7 10.7 30.8 30.8 0 0 0-1.3 12.5 45.5 45.5 0 0 0 9.1 22.6 60.5 60.5 0 0 0 8.2 8.9 67.8 67.8 0 0 0 9.8 7 78.2 78.2 0 0 0 19.2 8 124.2 124.2 0 0 1-20.5 34c-18 21.2-40.7 33.4-62.2 33.4-17.3 0-26.2-9.5-26.2-28.4 0-6.7 1.4-14.8 4.2-25l23.6-86.8h-30.4l-23.2 84a87.5 87.5 0 0 0-3.2 21.6c0 26.4 17.5 42.2 46.9 42.2 27.1 0 53.3-13 73.8-36.7a128.4 128.4 0 0 0 22.4-37 100.6 100.6 0 0 0 15.1 2 83.6 83.6 0 0 0-1.4 15.2c0 33.2 25.6 56.5 62.1 56.5 31.1 0 57.3-15 70-40ZM775.8 79c16.1 0 24 6.8 24 20.8 0 31.7-28.1 47.4-88.4 49.2 10.7-48 40.8-70 64.4-70ZM953.6 92.3c-3.3-11-14-17.9-28-17.9-17 0-38.9 11.8-56.4 42l9.7-39h-29.4l-39.7 144.8h30.5l19.6-72c7.3-21.4 16.9-38.8 28.4-51s25.1-19.5 37.3-19.5c11.5 0 20.3 5.4 23 14 2.8 9.7-2.6 20.7-14 28.1l3 4.4c13.3-8.7 19.5-22 16-34Z"/><path class="cls-1" d="M1025 28.3 992 39l-10.4 38.3h-23.5l-3.2 5h25.4L953.2 182a46.6 46.6 0 0 0-1.7 11.2c0 19.3 15.2 31.8 38.8 31.8 29 0 50.5-17.6 59.2-48.3l.2-1-4.8-1-.2.8c-7.9 26.4-25.3 42.2-46.6 42.2-12.4 0-18.5-5.2-18.5-16a57.4 57.4 0 0 1 1.6-11.6l29.6-108h50.2l3.2-5H1012ZM1136 101.3h18.5l3.9 8.3h5l-15.6-32.5h-2.5l-16.7 32.5h3.2Zm9.5-19 8 16.8H1137ZM1173 96.3h9.7a6.3 6.3 0 0 1 3.2 2.5 22.9 22.9 0 0 1 2.6 5.2 36.8 36.8 0 0 0 1.5 3.4 10.1 10.1 0 0 0 1.4 2.2h5v-.4a5.9 5.9 0 0 1-1.7-2 34 34 0 0 1-2-4.3 18.7 18.7 0 0 0-2.4-4.6 8.7 8.7 0 0 0-3-2.5q8-1.8 8-8.9a7.8 7.8 0 0 0-3.6-7q-3.6-2.4-10.2-2.4h-13.3v32.1h4.8Zm0-16.6h8.6q9 0 9 7.2t-9 7.3h-8.6ZM1217.3 110q6.6 0 10.8-2.7a11 11 0 0 0 5-7.8h-4.2a9.7 9.7 0 0 1-3.7 6.2 12.4 12.4 0 0 1-7.6 2.2q-6 0-9.2-3.8t-3.2-10.7q0-6.8 3.2-10.5t9.1-3.6a12.5 12.5 0 0 1 7.6 2.2 9.7 9.7 0 0 1 3.8 6.2h4.1a11 11 0 0 0-5-7.8q-4.2-2.8-10.8-2.8-8.2 0-12.5 4.2t-4.4 12.1q0 8 4.4 12.4t12.6 4.3ZM1243.9 93.5h20.6v16.1h4.7V77.5h-4.7v13.8h-20.6V77.5h-4.8v32.1h4.8V93.5zM1278.8 77.5h4.8v32.1h-4.8zM1303.7 109.6h4.8V79.7h13.5v-2.2h-31.8v2.2h13.5v29.9zM1353.9 107.4h-22.4V93.5h19.8v-2.2h-19.8V79.7h22.4v-2.2h-27.2v32.1h27.2v-2.2zM1375.8 79.3a12.5 12.5 0 0 1 7.6 2.2 9.7 9.7 0 0 1 3.8 6.2h4a11 11 0 0 0-5-7.8q-4-2.8-10.7-2.8-8.2 0-12.6 4.2t-4.3 12.1q0 8 4.4 12.4t12.6 4.3q6.5 0 10.7-2.8a11 11 0 0 0 5-7.8h-4.1a9.7 9.7 0 0 1-3.8 6.2 12.4 12.4 0 0 1-7.6 2.2q-6 0-9.2-3.8t-3.2-10.7q0-6.8 3.2-10.5t9.2-3.6ZM1408 109.6h4.7V79.7h13.5v-2.2h-31.8v2.2h13.6v29.9zM1457.5 106.5q3.6-3.5 3.6-10.2V77.5h-4.8v19.8q0 5.3-2.5 8c-1.6 1.7-4.2 2.6-7.8 2.6s-6.2-1-7.8-2.7-2.5-4.5-2.5-7.9V77.5h-4.7v18.8q0 6.7 3.5 10.2t11.6 3.6q7.9 0 11.4-3.6ZM1473.5 96.3h9.7a6.3 6.3 0 0 1 3.3 2.5 22.9 22.9 0 0 1 2.6 5.2 34 34 0 0 0 1.4 3.4 9.7 9.7 0 0 0 1.4 2.2h5v-.4a6 6 0 0 1-1.7-2 34 34 0 0 1-2-4.3 18.7 18.7 0 0 0-2.4-4.6 8.7 8.7 0 0 0-3-2.5q8-1.8 8-8.9a7.8 7.8 0 0 0-3.6-7q-3.6-2.4-10.2-2.4h-13.3v32.1h4.8Zm0-16.6h8.6q9 0 9 7.2t-9 7.3h-8.6ZM1529 107.4h-22.4V93.5h19.8v-2.2h-19.8V79.7h22.4v-2.2h-27.2v32.1h27.2v-2.2zM1573.8 105.3q4.7-4.3 4.7-12.3 0-7.6-4.7-11.5t-13.6-4h-12.5v32.1h12.7q8.7 0 13.4-4.3Zm-21.3-25.6h8.6q6.2 0 9.4 3.4t3.2 10q0 7-3.2 10.6t-9.4 3.7h-8.6ZM1586.3 81.8a2 2 0 0 0 1-.3 7.4 7.4 0 0 1-.8 3.3 7.2 7.2 0 0 1-2 2.6l.7.5a7.7 7.7 0 0 0 2.8-3 9 9 0 0 0 1.1-4.3 4.2 4.2 0 0 0-.7-2.6 2.4 2.4 0 0 0-2-1 2.5 2.5 0 0 0-1.8.7 2.4 2.4 0 0 0-.7 1.8 2.2 2.2 0 0 0 2.3 2.3ZM1597.3 77.5h4.8v32.1h-4.8zM1636 102.4l-19.5-24.9h-4.8v32.1h4V81.7l22 27.9h2.3V77.5h-4v24.9zM1644.8 79.7h13.5v29.9h4.8V79.7h13.5v-2.2h-31.8v2.2zM1681.3 109.6h27.2v-2.2h-22.4V93.5h19.8v-2.2h-19.8V79.7h22.4v-2.2h-27.2v32.1zM1703.2 69.4c1.1-.8 1.7-1.5 1.7-2.1a1 1 0 0 0-.4-.9 1.6 1.6 0 0 0-1-.3 3.2 3.2 0 0 0-2.5 1.2l-6.4 7h1.6ZM1740.5 107.1a37.1 37.1 0 0 1-2-4.2 19 19 0 0 0-2.4-4.6 8.8 8.8 0 0 0-3-2.5q8-1.8 8-8.9a7.8 7.8 0 0 0-3.6-7q-3.6-2.4-10.2-2.4H1714v32.1h4.7V96.3h9.7a6.2 6.2 0 0 1 3.2 2.5 22.9 22.9 0 0 1 2.6 5.2 36.5 36.5 0 0 0 1.5 3.4 9.7 9.7 0 0 0 1.4 2.2h5v-.4a6 6 0 0 1-1.7-2Zm-13-13h-8.6V79.8h8.5q9 0 9 7.2t-9 7.3ZM1749 77.5h4.8v32.1h-4.8zM1763.3 109.6h27.2v-2.2h-22.4V93.5h19.8v-2.2h-19.8V79.7h22.4v-2.2h-27.2v32.1zM1821.4 97.3c0 3.5-.8 6.1-2.4 8s-4.2 2.6-7.8 2.6-6.3-1-7.9-2.7-2.4-4.5-2.4-7.9V77.5h-4.8v18.8q0 6.7 3.6 10.2t11.5 3.6q8 0 11.5-3.6t3.5-10.2V77.5h-4.8ZM1860.3 107.1a37.1 37.1 0 0 1-2-4.2 19 19 0 0 0-2.4-4.6 8.8 8.8 0 0 0-3-2.5q8-1.8 8-8.9a7.8 7.8 0 0 0-3.6-7q-3.6-2.4-10.2-2.4H1834v32.1h4.7V96.3h9.7a6.2 6.2 0 0 1 3.3 2.5 22.9 22.9 0 0 1 2.6 5.2 36.5 36.5 0 0 0 1.4 3.4 9.7 9.7 0 0 0 1.4 2.2h5v-.4a6 6 0 0 1-1.7-2Zm-13-13h-8.6V79.8h8.5q9 0 9 7.2t-9 7.3ZM1889.5 76.6l-13 34h2.4l13-34h-2.4zM1144 133.8h-12.4v32h12.8q8.6 0 13.3-4.3t4.7-12.2q0-7.6-4.7-11.6t-13.6-3.9Zm10.4 26.2q-3.3 3.7-9.4 3.7h-8.6V136h8.6q6.2 0 9.4 3.4t3.2 9.9q0 7-3.2 10.7ZM1196.5 163.7h-22.4v-13.9h19.7v-2.2h-19.7V136h22.4v-2.2h-27.2v32.1h27.2v-2.2zM1189 123.5l-6.5 7.1h1.6l7-4.9q1.8-1.2 1.8-2.2a1.1 1.1 0 0 0-.4-.8 1.6 1.6 0 0 0-1-.4 3.2 3.2 0 0 0-2.5 1.2ZM1218.3 135.6a12.5 12.5 0 0 1 7.6 2.2 9.7 9.7 0 0 1 3.8 6.1h4.1a11 11 0 0 0-4.9-7.8q-4.2-2.7-10.8-2.7-8.2 0-12.6 4.2t-4.3 12.1q0 8 4.4 12.3c3 2.9 7.1 4.3 12.6 4.3q6.5 0 10.7-2.8a11 11 0 0 0 5-7.7h-4.2a9.7 9.7 0 0 1-3.7 6.1 12.3 12.3 0 0 1-7.6 2.2q-6 0-9.2-3.7c-2.1-2.5-3.2-6-3.2-10.7s1-8 3.2-10.5 5.1-3.6 9.1-3.6ZM1247 164.4a22.9 22.9 0 0 0 18.7 0 13.7 13.7 0 0 0 5.9-5.7 18.3 18.3 0 0 0 2-9 17.9 17.9 0 0 0-2-8.8 13.6 13.6 0 0 0-6-5.6 23.4 23.4 0 0 0-18.5 0 13.5 13.5 0 0 0-6 5.6 17.9 17.9 0 0 0-2 8.8 18.3 18.3 0 0 0 2 9 13.7 13.7 0 0 0 6 5.7Zm0-25.2q3.3-3.6 9.3-3.6t9.3 3.6q3.2 3.7 3.2 10.5t-3.2 10.7q-3.3 3.7-9.2 3.7t-9.3-3.7q-3.3-3.8-3.3-10.7t3.3-10.5ZM1306.9 163.4a35.6 35.6 0 0 1-2-4.3 19.4 19.4 0 0 0-2.4-4.5 8.7 8.7 0 0 0-3-2.6q8-1.7 8-8.8a7.8 7.8 0 0 0-3.6-7q-3.6-2.4-10.2-2.4h-13.2v32h4.8v-13.2h9.6a6.3 6.3 0 0 1 3.3 2.4 24 24 0 0 1 2.6 5.3 36.8 36.8 0 0 0 1.4 3.4 9.7 9.7 0 0 0 1.5 2.2h5v-.4a5.9 5.9 0 0 1-1.8-2.1Zm-13-13h-8.6V136h8.5q9 0 9 7.2t-9 7.2ZM1327.2 133.3l-16.7 32.6h3.2l4.2-8.4h18.5l3.9 8.4h5.1l-15.7-32.6Zm-8.2 22 8.4-16.8 8 16.9ZM1342.6 136h13.5v29.9h4.8V136h13.5v-2.2h-31.8v2.2zM1381 133.8h4.8v32.1h-4.8zM1427 140.9a13.6 13.6 0 0 0-6-5.6 23.4 23.4 0 0 0-18.5 0 13.6 13.6 0 0 0-6 5.6 17.9 17.9 0 0 0-2 8.8 18.3 18.3 0 0 0 2 9 13.7 13.7 0 0 0 6 5.7 22.9 22.9 0 0 0 18.6 0 13.7 13.7 0 0 0 5.9-5.7 18.2 18.2 0 0 0 2-9 17.8 17.8 0 0 0-2-8.8Zm-6 19.5q-3.3 3.7-9.2 3.7t-9.3-3.7q-3.2-3.8-3.2-10.7t3.2-10.5q3.3-3.6 9.3-3.6t9.2 3.6q3.3 3.7 3.2 10.5t-3.2 10.7ZM1439.9 138l22 27.9h2.4v-32.1h-4.1v24.9l-19.5-24.9h-4.8v32.1h4V138zM1483.9 166.9l13-34.1h-2.3l-13.1 34.1h2.4zM1149.8 216.5l-12.8-26.4h-5.4v32.1h2.8v-27.4l13.4 27.4h2.2l12.5-27v27h4.8v-32.1h-5.3l-12.2 26.4zM1188.7 189.6l-16.7 32.6h3.2l4.2-8.4h18.5l3.8 8.3h5.2l-15.7-32.5Zm-8.2 22 8.4-16.8 8 16.8ZM1214.3 179.9l-5.7 7h2.2l5.1-4.9 5 4.9h2.3l-5.7-7h-3.2zM1213.5 190.1h4.8v32.1h-4.8zM1224.9 192.3h13.5v29.9h4.8v-29.9h13.5v-2.2h-31.8v2.2zM1287.8 219.7a36.6 36.6 0 0 1-2-4.3 19.2 19.2 0 0 0-2.3-4.5 8.7 8.7 0 0 0-3-2.6q8-1.7 8-8.8a7.8 7.8 0 0 0-3.6-7.1q-3.6-2.3-10.2-2.3h-13.3v32h4.8V209h9.7a6.3 6.3 0 0 1 3.2 2.4 23.6 23.6 0 0 1 2.6 5.3 34.2 34.2 0 0 0 1.5 3.4 9.7 9.7 0 0 0 1.4 2.1h5v-.3a5.9 5.9 0 0 1-1.8-2.2Zm-13-13h-8.6v-14.4h8.6q9 0 9 7.2t-9 7.2ZM1296.3 190.1h4.8v32.1h-4.8zM1333.6 205.6a49.6 49.6 0 0 0-8-2.2 38.3 38.3 0 0 1-6.1-1.7 7.5 7.5 0 0 1-3-2 3.9 3.9 0 0 1-1-2.5 4.4 4.4 0 0 1 2.4-4 12.6 12.6 0 0 1 6.6-1.4 13.8 13.8 0 0 1 7 1.5 7 7 0 0 1 3.2 4.9h4a8.5 8.5 0 0 0-4-6.3q-3.6-2.3-10-2.3a21.2 21.2 0 0 0-10 2.1 6.7 6.7 0 0 0-3.9 6.2 6.4 6.4 0 0 0 3.4 5.8 31.4 31.4 0 0 0 10 3.3 35.8 35.8 0 0 1 6.4 1.8 8 8 0 0 1 3.3 2.2 4.9 4.9 0 0 1 1 3 5.3 5.3 0 0 1-2.5 4.8q-2.5 1.6-7.2 1.6-5.3 0-8-2a8 8 0 0 1-3-6.2h-4.2a9.8 9.8 0 0 0 4.4 7.7q4 2.7 11 2.7 6.5 0 10.4-2.4a8 8 0 0 0 2.4-11.6 10.7 10.7 0 0 0-4.6-3ZM1346.6 222.2h27.2V220h-22.4v-14h19.8v-2.1h-19.8v-11.6h22.4v-2.2h-27.2v32.1zM1418.6 194q-4.6-4-13.6-4h-12.5v32.1h12.8q8.6 0 13.3-4.3t4.7-12.3q0-7.5-4.7-11.5Zm-3.3 22.2q-3.3 3.7-9.4 3.7h-8.6v-27.6h8.6q6.2 0 9.4 3.3t3.3 10q0 7-3.3 10.6ZM1431.2 189.6a2.4 2.4 0 0 0-1.8.7 2.3 2.3 0 0 0-.6 1.7 2.3 2.3 0 0 0 .6 1.6 2.2 2.2 0 0 0 1.6.7 2 2 0 0 0 1-.3 7.3 7.3 0 0 1-.7 3.3 7 7 0 0 1-2 2.6l.8.6a7.7 7.7 0 0 0 2.8-3 9 9 0 0 0 1-4.3 4.2 4.2 0 0 0-.7-2.6 2.4 2.4 0 0 0-2-1ZM1465.5 193.7a12.8 12.8 0 0 0-4.6-3 17.8 17.8 0 0 0-14.2 1 13.4 13.4 0 0 0-5.4 5.6 19 19 0 0 0-2 8.7 19.4 19.4 0 0 0 2 8.8 13.5 13.5 0 0 0 5.4 5.8 17.5 17.5 0 0 0 14.3 1 12.6 12.6 0 0 0 4.5-3.2v3.7h20.4V220h-15.6v-14h13v-2h-13v-11.7h15.6V190h-20.4Zm-1.3 20a11 11 0 0 1-3.8 5 9.6 9.6 0 0 1-5.8 1.8 9.2 9.2 0 0 1-5.6-1.7 10.9 10.9 0 0 1-3.6-5 21.6 21.6 0 0 1-1.2-7.8 21 21 0 0 1 1.2-7.7 10.8 10.8 0 0 1 3.6-5 9.2 9.2 0 0 1 5.7-1.7 9.7 9.7 0 0 1 5.7 1.7 11 11 0 0 1 3.8 5 20 20 0 0 1 1.3 7.7 20.4 20.4 0 0 1-1.3 7.7ZM1516.8 209.9q0 5.2-2.4 7.8t-7.8 2.7q-5.5 0-8-2.7t-2.3-7.8V190h-4.8v18.7q0 6.7 3.5 10.3t11.6 3.5q8 0 11.5-3.5t3.5-10.3v-18.7h-4.8ZM1544.1 217.2l-12.7-27.1h-5.3l15.9 32.5h2.5l16.5-32.5h-3.1l-13.8 27.1zM1592 219.7a33.5 33.5 0 0 1-2-4.3 18.8 18.8 0 0 0-2.5-4.5 8.7 8.7 0 0 0-3-2.6q8-1.7 8-8.8a7.8 7.8 0 0 0-3.6-7.1q-3.6-2.3-10.2-2.3h-13.2v32h4.7V209h9.7a6.3 6.3 0 0 1 3.2 2.4 24 24 0 0 1 2.7 5.3 36.8 36.8 0 0 0 1.4 3.4 10.1 10.1 0 0 0 1.4 2.1h5v-.3a5.8 5.8 0 0 1-1.7-2.2Zm-13.2-13h-8.5v-14.4h8.5q9 0 9 7.2t-9 7.2ZM1598.5 222.2h27.2V220h-22.4v-14h19.8v-2.1h-19.8v-11.6h22.4v-2.2h-27.2v32.1zM1640.8 223.2h2.4l13.1-34.1h-2.4l-13.1 34.1z"/></g></g></svg>