<svg xmlns="http://www.w3.org/2000/svg" xmlns:xlink="http://www.w3.org/1999/xlink" viewBox="0 0 600 600"><defs><style>.cls-1{fill:none;}.cls-2{fill:#b05138;}.cls-3{clip-path:url(#clip-path);}.cls-4{fill:#fff;}</style><clipPath id="clip-path"><circle class="cls-1" cx="300" cy="300" r="300"/></clipPath></defs><g id="Calque_2" data-name="Calque 2"><g id="Calque_1-2" data-name="Calque 1"><circle class="cls-2" cx="300" cy="300" r="300"/><g class="cls-3"><path class="cls-4" d="M663.83,244A117,117,0,0,1,660,274.5a150.09,150.09,0,0,1-10.83,29.08,156.66,156.66,0,0,1-37.77,49A152.82,152.82,0,0,1,586,370.37a156,156,0,0,1-28.52,12.33,182.73,182.73,0,0,1-61.58,8.2A134.48,134.48,0,0,1,474,388.33a143.85,143.85,0,0,0,8.24-46.48H475a136,136,0,0,1-8.16,44.8c-.51-.14-1-.26-1.54-.41a99.3,99.3,0,0,1-27.86-12.64,77.31,77.31,0,0,1-21.52-21.2A62.08,62.08,0,0,1,409.16,339a47.7,47.7,0,0,1-2.79-14.47,33.55,33.55,0,0,1,2.46-14,25.71,25.71,0,0,1,8.55-10.83,28.6,28.6,0,0,1,13-5.28,32,32,0,0,1,14.12,1.31c9.23,2.94,17.24,9.58,22.54,17.88a49.31,49.31,0,0,1,6,13.5,55.53,55.53,0,0,1,2,14.77h7.24A62.69,62.69,0,0,0,480,325.14a56.85,56.85,0,0,0-6.9-15.48,50,50,0,0,0-26.43-20.86,39.16,39.16,0,0,0-17.33-1.58,35.92,35.92,0,0,0-16.23,6.59,33.24,33.24,0,0,0-10.95,13.86,40.69,40.69,0,0,0-3,17.07,55,55,0,0,0,3.2,16.68,69.21,69.21,0,0,0,7.54,15,84.64,84.64,0,0,0,23.54,23.23,106.5,106.5,0,0,0,29.9,13.58l.94.25a173.48,173.48,0,0,1-28.42,46.89c-25.29,29.75-57,46.82-86.93,46.82-24.29,0-36.6-13.37-36.6-39.73,0-9.28,1.9-20.72,5.82-35l22.74-83.54,0,0a110.89,110.89,0,0,0,4.09-30.17c0-62-44.78-94.47-89-94.47-36.54,0-61.11,21.45-71,44.58V109.92H146.39V391.7h34.77L184.49,350c11.33,27.8,38.75,45.45,71.42,45.45a87.76,87.76,0,0,0,27.47-4.34l.52-.18c.7-.23,1.38-.47,2.06-.72l.61-.22c.78-.29,1.56-.59,2.32-.91l.16-.06c.84-.35,1.68-.71,2.5-1.08l.47-.21,2-.92.61-.31c.68-.33,1.35-.68,2-1l.34-.17c.78-.42,1.56-.86,2.33-1.3l.42-.25,1.84-1.12.62-.38c.6-.38,1.19-.77,1.77-1.16.15-.1.3-.19.45-.3.72-.49,1.44-1,2.15-1.51l.38-.27,1.72-1.3.61-.48L310.8,376l.5-.42q1-.84,2-1.71l.29-.26c.55-.5,1.1-1,1.64-1.51l.58-.55,1.37-1.36.53-.53c.61-.63,1.21-1.26,1.8-1.9l0,0c-8.42,15.06-23.83,29-43.3,40.68l0,.11c-3.16,12.44-4.56,21.79-4.56,30.33,0,36.87,24.5,58.88,65.53,58.88,37.94,0,74.6-18.19,103.22-51.21a178.92,178.92,0,0,0,31.08-51.26,142.39,142.39,0,0,0,24.12,2.92A203.58,203.58,0,0,0,528,396.62a180.34,180.34,0,0,0,31.69-7,163.89,163.89,0,0,0,29.84-12.9A159.54,159.54,0,0,0,616.12,358a163.76,163.76,0,0,0,39.52-51.24A156.42,156.42,0,0,0,667,276.29a124.11,124.11,0,0,0,4.08-32.47ZM244.72,385.88c-33.32,0-59-28.5-59.77-66.27V279.36c.74-37.58,26.61-65.92,60.17-65.92s55.38,33.48,55.38,85.29C300.5,351.67,278.6,385.88,244.72,385.88Z"/></g></g></g></svg>